<?xml version="1.0" encoding="utf-8"?>
<!-- Generator: Adobe Illustrator 24.2.3, SVG Export Plug-In . SVG Version: 6.00 Build 0)  -->
<svg version="1.1" id="Layer_1" xmlns="http://www.w3.org/2000/svg" xmlns:xlink="http://www.w3.org/1999/xlink" x="0px" y="0px"
	 viewBox="0 0 150 136.4" style="enable-background:new 0 0 150 136.4;" xml:space="preserve">
<style type="text/css">
	.st0{fill:#5AA3BF;}
</style>
<g id="Guides_For_Artboard">
</g>
<g id="Layer_1_1_">
	<g>
		<path class="st0" d="M109.1,130.6c-0.7,0-1.4-0.3-1.8-0.9c-2-2.8-4.3-3.9-7.9-3.9c-2.4,0-5.4,0.5-8.8,1c-2.2,0.4-4.8,0.8-7.5,1.1
			c-0.1,0-0.2,0-0.4,0c-3.2-0.1-5.8-1.4-7.7-3.6c-1.9,2.2-4.5,3.5-7.7,3.6c-0.1,0-0.2,0-0.4,0c-2.8-0.3-5.3-0.8-7.5-1.1
			c-3.4-0.6-6.4-1-8.8-1c-3.6,0-5.8,1.1-7.9,3.9c-0.7,0.9-1.9,1.2-2.9,0.7s-1.5-1.7-1.1-2.8c1.5-4.4-0.6-8.6-11.4-22
			c-2.3-3-3-6.1-2.2-9c-2.2-0.5-4.9-2.1-6.7-6.3c-6.1-16.2-8.6-20.1-13.2-21C4,69.1,3.3,68.1,3.3,67c0.1-1.1,0.9-2,2-2.2
			c5.9-0.6,7.5-4.2,10.9-13c0.8-2.1,1.7-4.5,2.8-7.1c0-0.1,0.1-0.2,0.2-0.3c1.7-2.7,4.1-4.4,7-4.9c-1-2.7-0.7-5.6,0.8-8.5
			c0.1-0.1,0.1-0.2,0.2-0.3c1.7-2.2,3.3-4.2,4.7-6c5.9-7.3,8.2-10.4,5.8-15.9c-0.5-1-0.1-2.2,0.8-2.8c0.9-0.6,2.2-0.4,2.9,0.4
			c1.6,1.8,3.5,2.9,8.3,2.9c3.4,0,8.2-0.5,16.4-1.8c0.7-0.1,1.4-0.1,2-0.1c2.9,0,5.2,0.9,6.8,2.7c2-2.2,5-3.1,8.8-2.6
			c8.3,1.3,13.1,1.8,16.5,1.8c4.9,0,6.8-1.1,8.3-2.9c0.7-0.9,2-1,2.9-0.4s1.3,1.8,0.8,2.8c-2.5,5.4-0.1,8.6,5.8,15.9
			c1.4,1.8,3,3.7,4.7,6c0.1,0.1,0.1,0.2,0.2,0.3c1.5,2.8,1.7,5.7,0.8,8.5c2.9,0.5,5.3,2.2,7,4.9c0.1,0.1,0.1,0.2,0.2,0.3
			c1.1,2.6,2,5,2.8,7.1c3.3,8.8,4.9,12.4,10.9,13c1.1,0.1,2,1,2,2.2c0.1,1.1-0.7,2.1-1.8,2.3c-4.6,0.9-7.1,4.8-13.3,20.9
			c-1.8,4.3-4.5,5.8-6.7,6.4c0.9,2.9,0.2,6-2.1,8.9c-10.9,13.5-13,17.6-11.5,22c0.4,1.1-0.1,2.2-1.1,2.8
			C109.8,130.5,109.4,130.6,109.1,130.6z M50.6,121.1c2.8,0,5.9,0.5,9.5,1.1c2.1,0.3,4.6,0.7,7.2,1.1c2.8-0.2,4.6-1.6,5.6-4.4
			c0.3-0.9,1.2-1.5,2.1-1.5s1.8,0.6,2.1,1.5c1,2.8,2.8,4.2,5.6,4.4c2.6-0.3,5-0.7,7.2-1.1c3.6-0.6,6.7-1.1,9.5-1.1s5.1,0.5,7.1,1.7
			c1-5.1,5.2-10.8,12.7-20.1c2-2.6,2-4.8,0.1-6.8c-0.7-0.7-0.8-1.8-0.3-2.7c0.5-0.9,1.5-1.3,2.5-1.1c0.5,0.1,1,0.2,1.4,0.2
			c1.3,0,3.1-0.4,4.5-3.7c4.3-11.1,7.1-17.6,11-21c-4.4-2.6-6.4-7.7-8.8-14.1c-0.8-2-1.6-4.3-2.7-6.7c-1.5-2.3-3.7-3.2-6.6-2.6
			c-0.9,0.2-1.9-0.3-2.4-1.1s-0.4-1.9,0.2-2.6c1.9-2.3,2.2-4.5,1-7c-1.6-2.1-3.1-4-4.5-5.7c-4.3-5.3-7.8-9.5-7.8-14.6
			c-1.8,0.6-4,0.9-6.6,0.9c-4.3,0-9.9-0.8-17.1-1.9c-0.4-0.1-0.9-0.1-1.3-0.1c-2.5,0-4,1.1-4.7,3.4c-0.3,0.9-1.2,1.6-2.2,1.6
			s-1.9-0.6-2.2-1.6c-0.8-2.7-2.8-3.8-6-3.3c-7,1.1-12.7,1.8-17,1.8c-2.6,0-4.8-0.3-6.6-0.9c0,5.1-3.5,9.3-7.8,14.6
			c-1.4,1.7-2.9,3.6-4.5,5.7c-1.2,2.5-0.9,4.8,1,7c0.6,0.7,0.7,1.8,0.2,2.6s-1.4,1.3-2.4,1.1c-2.9-0.5-5.1,0.3-6.6,2.6
			c-1,2.4-1.9,4.7-2.7,6.8C18,59.9,16.1,65,11.7,67.6c3.9,3.4,6.8,9.9,11.1,21c1.4,3.3,3.2,3.7,4.5,3.7c0.4,0,0.9-0.1,1.4-0.2
			c1-0.2,2,0.2,2.5,1.1s0.4,1.9-0.3,2.7c-1.9,2.1-1.9,4.3,0.2,6.9c7.5,9.2,11.7,15,12.7,20.1C45.5,121.7,47.9,121.1,50.6,121.1z"/>
		<path class="st0" d="M84.2,117.1c-0.8,0-1.6-0.5-2-1.2c-1.4-2.7-4.2-4.3-7.2-4.3c-3.1,0-5.8,1.7-7.3,4.3c-0.4,0.8-1.4,1.3-2.3,1.2
			c-1.5-0.2-2.8-0.4-4.1-0.6h-0.2c-3.9-0.6-7.2-1.2-10.4-1.2c-0.7,0-1.4,0-2,0.1c-0.9,0.1-1.7-0.4-2.2-1.2
			c-2.4-4.3-5.9-8.8-9.8-13.7c-0.6-0.7-0.7-1.6-0.3-2.4c1.2-2.5,1.2-5.4-0.2-7.8s-3.9-3.9-6.6-4.1c-0.9,0-1.7-0.6-2-1.4
			c-2.3-5.9-4.4-11.2-7-15.4c-0.5-0.8-0.4-1.7,0.1-2.4c2.3-3.4,3.8-7.4,5.3-11.3l0.1-0.2c0.5-1.3,1-2.6,1.5-4
			c0.4-0.9,1.3-1.4,2.2-1.4h0.3c2.9,0,5.7-1.6,7.1-4.1c1.5-2.7,1.5-5.9-0.1-8.4c-0.5-0.8-0.5-1.9,0.1-2.6c1-1.2,1.9-2.4,2.8-3.5
			c2.6-3.2,5.4-6.6,7.2-10.3c0.4-0.8,1.2-1.3,2-1.3l0,0h0.6c4.7,0,10.5-0.8,16.2-1.7c0.9-0.1,1.8,0.3,2.2,1c1.5,2.3,4.1,3.7,6.8,3.7
			c2.8,0,5.3-1.4,6.8-3.7c0.5-0.7,1.4-1.1,2.2-1c5.4,0.8,11.5,1.7,16.2,1.7h0.6c0.9,0,1.7,0.5,2.1,1.3c1.8,3.7,4.5,7,7.1,10.2
			c0.9,1.1,1.8,2.2,2.8,3.5c0.6,0.7,0.7,1.8,0.1,2.6c-1.6,2.6-1.7,5.8-0.2,8.4c1.5,2.5,4.2,4.1,7.1,4.1h0.3c1,0,1.8,0.5,2.2,1.4
			c0.5,1.4,1,2.7,1.5,3.9l0.1,0.2c1.5,3.9,3,7.9,5.3,11.3c0.5,0.7,0.5,1.7,0.1,2.4c-2.6,4.2-4.7,9.5-7,15.4c-0.3,0.8-1.1,1.4-2,1.4
			c-2.8,0.2-5.2,1.7-6.6,4.1s-1.5,5.3-0.2,7.8c0.4,0.8,0.3,1.7-0.3,2.4c-4,4.9-7.5,9.4-9.8,13.7c-0.4,0.8-1.3,1.2-2.2,1.2
			c-3.8-0.3-7.8,0.3-12.4,1.1c-1.5,0.2-2.9,0.5-4.4,0.7C84.4,117.1,84.3,117.1,84.2,117.1z M75,107.1c4.1,0,8,2,10.3,5.3
			c1-0.1,1.9-0.3,2.8-0.4c4.5-0.7,8.3-1.3,12.2-1.2c2.3-3.9,5.3-7.8,8.7-12c-1.3-3.5-1-7.4,0.9-10.7c1.9-3.3,5.1-5.5,8.8-6.2
			c2-5.1,3.8-9.6,6.1-13.6c-2.1-3.5-3.6-7.3-5-11l-0.1-0.2c-0.3-0.8-0.6-1.6-0.9-2.4c-4.1-0.4-7.7-2.7-9.8-6.3
			c-2.1-3.6-2.2-7.9-0.5-11.6c-0.6-0.8-1.2-1.5-1.8-2.2c-2.5-3.1-5.1-6.3-7.1-9.9c-3.7-0.1-8.1-0.5-14.8-1.5
			c-2.4,2.9-5.9,4.5-9.7,4.5c-3.8,0-7.3-1.7-9.7-4.5C60.3,24,55,24.6,50.6,24.7c-2,3.6-4.5,6.8-7,9.9c-0.6,0.7-1.2,1.5-1.8,2.3
			c1.7,3.7,1.5,8-0.6,11.7c-2.1,3.6-5.7,5.9-9.8,6.3c-0.3,0.9-0.7,1.7-1,2.5l-0.1,0.2c-1.3,3.5-2.8,7.5-5,11
			c2.2,3.9,4.1,8.5,6.1,13.6c3.7,0.6,6.9,2.9,8.8,6.2c1.9,3.3,2.2,7.2,0.9,10.7c3.4,4.2,6.4,8.1,8.7,12c3.8-0.1,7.7,0.5,12.1,1.2
			h0.3c0.8,0.1,1.7,0.3,2.6,0.4C67,109.1,70.8,107.1,75,107.1z"/>
		<path class="st0" d="M89,103.2c-0.5,0-1-0.2-1.4-0.4c-3.7-2.7-8-4.2-12.6-4.2s-9,1.4-12.7,4.2c-0.5,0.4-1.1,0.5-1.7,0.4
			c-2.1-0.3-3.7-0.5-5.2-0.7c-0.7-0.1-1.2-0.4-1.6-0.9c-0.9-1.3-1.9-2.7-3.1-4.3c-0.3-0.4-0.5-1-0.5-1.5c0.3-4.2-0.7-8.3-2.8-12
			s-5.2-6.6-9-8.4c-0.5-0.2-0.9-0.7-1.1-1.2c-0.7-1.8-1.4-3.4-2.1-4.9c-0.3-0.6-0.3-1.3,0-1.9c0.7-1.5,1.3-3,2-4.8
			c0.2-0.6,0.7-1,1.2-1.3c4.2-1.8,7.7-4.9,9.9-8.8c2.3-4,3.3-8.5,2.7-13.1c-0.1-0.6,0.1-1.2,0.5-1.7c0.8-1,2-2.5,3.2-4.2
			c0.4-0.5,1-0.9,1.6-0.9c1.6-0.1,3.3-0.3,5.2-0.6c0.5-0.1,1.1,0.1,1.6,0.4C66.7,34.7,70.8,36,75,36s8.3-1.2,11.8-3.6
			c0.5-0.3,1-0.4,1.6-0.4c1.9,0.2,3.6,0.4,5.2,0.6c0.7,0.1,1.3,0.4,1.6,0.9c0.9,1.3,1.9,2.6,3.2,4.2c0.4,0.5,0.6,1.1,0.5,1.7
			c-0.5,4.6,0.4,9.1,2.7,13c2.3,3.9,5.8,7.1,10,8.9c0.6,0.2,1,0.7,1.2,1.3c0.5,1.3,1.2,3,2,4.8c0.3,0.6,0.3,1.3,0,1.9
			c-0.7,1.5-1.4,3.1-2.1,4.9c-0.2,0.5-0.6,0.9-1.1,1.2c-3.8,1.9-6.9,4.8-9,8.4c-2.1,3.7-3.1,7.8-2.8,12c0,0.6-0.1,1.1-0.5,1.5
			c-1.2,1.5-2.2,2.9-3.2,4.3c-0.4,0.5-1,0.9-1.6,0.9c-1.9,0.2-3.7,0.4-5.2,0.7C89.2,103.2,89.1,103.2,89,103.2z M75,94
			c5.2,0,10.2,1.6,14.5,4.5c1.1-0.2,2.3-0.3,3.5-0.5c0.7-0.9,1.4-1.9,2.2-2.9c-0.2-4.8,1-9.5,3.4-13.7s5.9-7.6,10.1-9.8
			c0.5-1.2,1-2.3,1.4-3.3c-0.5-1.2-1-2.3-1.3-3.2c-4.7-2.2-8.6-5.9-11.2-10.4s-3.8-9.7-3.4-14.9c-0.8-1-1.5-1.9-2.2-2.8
			c-1.1-0.1-2.3-0.2-3.5-0.4c-4.1,2.5-8.8,3.9-13.6,3.9c-4.8,0-9.5-1.3-13.6-3.9c-1.2,0.2-2.4,0.3-3.5,0.4c-0.8,1-1.5,2-2.1,2.8
			c0.4,5.2-0.8,10.3-3.4,14.9c-2.6,4.5-6.5,8.1-11.2,10.3c-0.5,1.2-0.9,2.2-1.3,3.2c0.5,1,1,2.2,1.5,3.4c4.2,2.3,7.7,5.6,10.1,9.8
			c2.4,4.2,3.6,8.9,3.4,13.7c0.8,1,1.5,2,2.2,2.9c1,0.1,2.2,0.3,3.5,0.5C64.7,95.6,69.7,94,75,94z"/>
		<path class="st0" d="M87.6,90.5c-0.3,0-0.6-0.1-0.8-0.2c-7.5-3-16.1-3-23.5,0c-0.6,0.3-1.3,0.2-1.9-0.1c-0.6-0.3-1-0.9-1.1-1.6
			c-0.7-3.6-1.9-7-3.7-10.1c-1.8-3.2-4.2-6-6.9-8.3c-0.5-0.4-0.8-1.1-0.8-1.8c0-0.7,0.3-1.3,0.9-1.7c3.2-2.5,5.8-5.5,7.8-9
			s3.4-7.3,3.9-11.3c0.1-0.7,0.5-1.3,1.1-1.6c0.6-0.4,1.3-0.4,1.9-0.2c6.8,2.4,14.5,2.4,21.3,0c0.6-0.2,1.3-0.2,1.9,0.2
			c0.6,0.3,1,0.9,1.1,1.6c0.6,4,1.9,7.8,3.9,11.3s4.7,6.5,7.8,9c0.5,0.4,0.8,1.1,0.9,1.7c0,0.7-0.3,1.3-0.8,1.8
			c-2.8,2.3-5.1,5.1-6.9,8.3c-1.8,3.2-3.1,6.6-3.7,10.2c-0.1,0.7-0.5,1.2-1.1,1.6C88.3,90.4,88,90.5,87.6,90.5z M75,83.6
			c3.7,0,7.4,0.6,10.9,1.7c0.8-3.1,2.1-6.2,3.7-9s3.6-5.4,6-7.7c-2.8-2.5-5.1-5.4-6.9-8.6c-1.9-3.2-3.2-6.7-4-10.3
			c-6.3,1.7-13,1.7-19.3,0c-0.8,3.6-2.1,7.1-4,10.3s-4.2,6.1-6.9,8.6c2.3,2.3,4.3,4.9,6,7.7c1.6,2.8,2.9,5.9,3.7,9
			C67.6,84.2,71.3,83.6,75,83.6z"/>
	</g>
</g>
</svg>
