<?xml version="1.0" encoding="utf-8"?>
<!-- Generator: Adobe Illustrator 24.2.1, SVG Export Plug-In . SVG Version: 6.00 Build 0)  -->
<svg version="1.1" id="Layer_1" xmlns="http://www.w3.org/2000/svg" xmlns:xlink="http://www.w3.org/1999/xlink" x="0px" y="0px"
	 viewBox="0 0 100 64" style="enable-background:new 0 0 100 64;" xml:space="preserve">
<style type="text/css">
	.st0{fill:#FFFFFF;}
</style>
<g>
	<path class="st0" d="M25.8,63.5C9.1,63.5,0.9,51.3,0.6,50.8c-0.3-0.4-0.3-1,0-1.5c0.3-0.5,8.6-12.7,25.2-12.7
		c15.4,0,24.8,12.1,25.2,12.6c0.4,0.5,0.4,1.1,0,1.6C50.6,51.4,41.2,63.5,25.8,63.5z M3.3,50.1c2,2.5,9.5,10.7,22.5,10.7
		c11.9,0,20.1-8.1,22.4-10.7c-2.3-2.6-10.5-10.7-22.4-10.7C12.8,39.3,5.3,47.6,3.3,50.1z"/>
	<path class="st0" d="M74.2,63.5c-16.7,0-24.9-12.1-25.2-12.7c-0.3-0.4-0.3-1,0-1.5c0.3-0.5,8.6-12.7,25.2-12.7
		c15.4,0,24.8,12.1,25.2,12.6c0.4,0.5,0.4,1.1,0,1.6C99,51.4,89.6,63.5,74.2,63.5z M51.7,50.1c2,2.5,9.5,10.7,22.5,10.7
		c11.9,0,20.1-8.1,22.4-10.7c-2.3-2.6-10.5-10.7-22.4-10.7C61.3,39.3,53.7,47.6,51.7,50.1z"/>
	<path class="st0" d="M49.9,51.4c-0.3,0-0.6-0.1-0.8-0.3c-0.5-0.4-12.6-9.7-12.6-25.2c0-16.7,12.1-24.9,12.7-25.2
		c0.4-0.3,1-0.3,1.5,0C51.2,1.1,63.3,9.3,63.3,26c0,15.4-12.1,24.8-12.6,25.2C50.5,51.3,50.2,51.4,49.9,51.4z M49.9,3.5
		C47.4,5.5,39.2,13,39.2,26c0,11.9,8.1,20.1,10.7,22.4C52.5,46,60.7,37.9,60.7,26C60.7,13,52.4,5.5,49.9,3.5z"/>
	<path class="st0" d="M46.8,51.6c-5.4,0-15.5-1.2-23.4-9.1c-11.8-11.8-9-26.2-8.9-26.8c0.1-0.5,0.5-0.9,1-1c0.1,0,1.8-0.4,4.4-0.4
		c4.9,0,14.3,1.2,22.4,9.2c10.9,10.9,9,26.1,8.9,26.7c-0.1,0.6-0.5,1.1-1.1,1.1C50,51.4,48.8,51.6,46.8,51.6z M17,17.1
		c-0.4,3.2-0.9,14.3,8.3,23.5c7.2,7.2,16.6,8.3,21.6,8.3c0.8,0,1.4,0,1.9-0.1c0.2-3.5,0.2-15-8.2-23.4C33.1,18.1,24.5,17,20,17
		C18.7,17,17.7,17.1,17,17.1z"/>
	<path class="st0" d="M53,51.6C53,51.6,53,51.6,53,51.6c-2,0-3.2-0.2-3.3-0.2c-0.6-0.1-1.1-0.5-1.1-1.1c-0.1-0.6-2-15.8,8.9-26.7
		c8-8,17.5-9.2,22.4-9.2c2.7,0,4.4,0.3,4.4,0.4c0.5,0.1,0.9,0.5,1,1c0.1,0.6,2.9,15-8.9,26.8C68.5,50.4,58.4,51.6,53,51.6z
		 M51.1,48.9c0.5,0,1.1,0.1,1.9,0.1c5,0,14.3-1.1,21.6-8.3c9.1-9.1,8.7-20.3,8.3-23.5c-0.7-0.1-1.7-0.2-3-0.2
		c-4.5,0-13.1,1.1-20.5,8.5C50.9,33.9,50.9,45.4,51.1,48.9z"/>
</g>
</svg>
