<?xml version="1.0" encoding="utf-8"?>
<!-- Generator: Adobe Illustrator 24.2.3, SVG Export Plug-In . SVG Version: 6.00 Build 0)  -->
<svg version="1.1" xmlns="http://www.w3.org/2000/svg" xmlns:xlink="http://www.w3.org/1999/xlink" x="0px" y="0px"
	 viewBox="0 0 150 136.4" style="enable-background:new 0 0 150 136.4;" xml:space="preserve">
<style type="text/css">
	.st0{fill:#2C6673;}
</style>
<g id="Guides_For_Artboard">
</g>
<g id="Layer_1">
	<g>
		<path class="st0" d="M33.9,135.1c-1.3,0-2.3-0.9-2.3-2.1c0-1.3,1-2.2,2.3-2.2l100.6-0.1c3,0,3-5.6,3-6.2V53.7c0-2.4-1.1-5.2-4-5.2
			c-24.7,0-63.1-0.4-73.5-0.4h-2.6c-1.3,0-2.3-1-2.3-2.3s1-2.3,2.3-2.3h2.6c10.4,0,48.8,0.3,73.5,0.4c5.1,0,8.6,4.2,8.6,9.8v70.8
			c0,6.6-3,10.7-7.6,10.7L33.9,135.1C34,135.1,33.9,135.1,33.9,135.1z"/>
		<path class="st0" d="M33.8,135.4c-14.3,0-26-11.6-26-25.8c0-14.2,11.6-25.8,26-25.8c14.3,0,26,11.6,26,25.8
			C59.8,123.9,48.1,135.4,33.8,135.4z M33.8,88.4c-11.8,0-21.4,9.5-21.4,21.2c0,11.7,9.6,21.2,21.4,21.2c11.8,0,21.4-9.5,21.4-21.2
			C55.2,97.9,45.6,88.4,33.8,88.4z"/>
		<path class="st0" d="M33.9,127.4c-9.8,0-17.8-8-17.8-17.8c0-9.8,8-17.8,17.8-17.8c9.8,0,17.8,8,17.8,17.8
			C51.7,119.4,43.8,127.4,33.9,127.4z M33.9,96.4c-7.3,0-13.2,5.9-13.2,13.2c0,7.3,5.9,13.2,13.2,13.2s13.2-5.9,13.2-13.2
			C47.2,102.3,41.2,96.4,33.9,96.4z"/>
		<path class="st0" d="M34.3,119.8c-5.6,0-10.2-4.6-10.2-10.2c0-5.6,4.6-10.2,10.2-10.2c5.6,0,10.2,4.6,10.2,10.2
			C44.5,115.2,39.9,119.8,34.3,119.8z M34.3,104c-3.1,0-5.6,2.5-5.6,5.6c0,3.1,2.5,5.6,5.6,5.6c3.1,0,5.6-2.5,5.6-5.6
			C39.9,106.5,37.4,104,34.3,104z"/>
		<path class="st0" d="M57.5,110.4c-1.3,0-2.3-1-2.3-2.3l0-80.4c0-1.3,1-2.3,2.3-2.3c1.3,0,2.3,1,2.3,2.3l0,80.4
			C59.8,109.4,58.7,110.4,57.5,110.4z"/>
		<path class="st0" d="M10.1,113.8C10.1,113.8,10.1,113.8,10.1,113.8c-1.3,0-2.3-1-2.3-2.3L8,27.1c0-1.3,1-1.9,2.3-1.9c0,0,0,0,0,0
			c1.3,0,2.3,0.7,2.3,1.9l-0.2,84.5C12.4,112.9,11.4,113.8,10.1,113.8z"/>
		<path class="st0" d="M57.5,29c-1.3,0-2.3-1-2.3-2.3c0-10-8.9-21.2-20.8-21.2c-11.2,0-21.8,10.3-21.8,21.2c0,1.3-1,2.3-2.3,2.3
			C9,29,8,28,8,26.8C8,13.2,20.6,0.9,34.4,0.9c13.5,0,25.4,12.1,25.4,25.8C59.8,28,58.7,29,57.5,29z"/>
	</g>
</g>
</svg>
