<?xml version="1.0" encoding="utf-8"?>
<!-- Generator: Adobe Illustrator 24.2.3, SVG Export Plug-In . SVG Version: 6.00 Build 0)  -->
<svg version="1.1" xmlns="http://www.w3.org/2000/svg" xmlns:xlink="http://www.w3.org/1999/xlink" x="0px" y="0px"
	 viewBox="0 0 150 136.4" style="enable-background:new 0 0 150 136.4;" xml:space="preserve">
<style type="text/css">
	.st0{fill:#FFFFFF;}
	.st1{fill:#2C6673;}
</style>
<g id="Guides_For_Artboard">
</g>
<g id="Layer_1">
	<g>
		<g>
			<path class="st0" d="M85.8,85.3c1.5,1.5,1.5,3.9,0,5.4l-40.7,41.3c-1.5,1.5-3.9,1.5-5.4,0l-11.3-11.2c-1.5-1.5-1.5-3.9-0.1-5.4
				l43.3-44L85.8,85.3z"/>
			<path class="st1" d="M42.5,135.1c-1.6,0-3-0.6-4.1-1.7L27,122.3c-2.3-2.3-2.4-6-0.1-8.3l43.3-44c0.8-0.8,2.1-0.8,3,0l14,13.8
				c1.1,1.1,1.7,2.6,1.8,4.1c0,1.6-0.6,3.1-1.7,4.2l-40.7,41.3C45.6,134.5,44.1,135.1,42.5,135.1z M71.8,74.4l-41.9,42.5
				c-0.7,0.7-0.6,1.7,0,2.4l11.3,11.2c0.6,0.6,1.8,0.6,2.4,0l40.7-41.3c0.3-0.3,0.5-0.7,0.5-1.2c0-0.5-0.2-0.9-0.5-1.2L71.8,74.4z"
				/>
		</g>
		<g>
			<path class="st1" d="M86.9,87.6c0,0-15.1,1-25.8,11.2"/>
			<path class="st1" d="M61.1,100.9c-0.6,0-1.1-0.2-1.5-0.7c-0.8-0.8-0.8-2.2,0.1-3c11.2-10.6,26.5-11.7,27.1-11.8
				c1.1-0.1,2.1,0.8,2.2,1.9c0.1,1.2-0.8,2.2-1.9,2.2c-0.1,0-14.5,1.1-24.5,10.6C62.1,100.7,61.6,100.9,61.1,100.9z"/>
		</g>
		<g>
			<path class="st0" d="M98.7,55.4c1.5,1.5,1.5,3.9,0,5.4l-40.7,41.3c-1.5,1.5-3.9,1.5-5.4,0L41.4,90.9c-1.5-1.5-1.5-3.9-0.1-5.4
				l43.3-44L98.7,55.4z"/>
			<path class="st1" d="M55.4,105.3c-1.6,0-3-0.6-4.1-1.7L39.9,92.4c-2.3-2.3-2.4-6-0.1-8.3l43.3-44c0.8-0.8,2.1-0.8,3,0l14,13.8
				c1.1,1.1,1.7,2.6,1.8,4.1c0,1.6-0.6,3.1-1.7,4.2l-40.7,41.3C58.5,104.7,57,105.3,55.4,105.3z M84.7,44.6L42.8,87
				c-0.7,0.7-0.6,1.7,0,2.4l11.3,11.2c0.6,0.6,1.8,0.6,2.4,0l40.7-41.3c0.3-0.3,0.5-0.7,0.5-1.2c0-0.5-0.2-0.9-0.5-1.2L84.7,44.6z"
				/>
		</g>
		<g>
			<path class="st1" d="M99.8,57.8c0,0-15.1,1-25.8,11.2"/>
			<path class="st1" d="M74,71.1c-0.6,0-1.1-0.2-1.5-0.7c-0.8-0.8-0.8-2.2,0.1-3C83.7,56.8,99,55.7,99.7,55.7
				c1.1-0.1,2.1,0.8,2.2,1.9c0.1,1.2-0.8,2.2-1.9,2.2c-0.1,0-14.5,1.1-24.5,10.6C75,70.9,74.5,71.1,74,71.1z"/>
		</g>
		<g>
			<path class="st0" d="M116,26.5l-43.3,44c-1.5,1.5-3.9,1.5-5.4,0L56,59.4c-1.5-1.5-1.5-3.9-0.1-5.4l43.3-44L116,26.5z"/>
			<path class="st1" d="M70,73.7c-1.6,0-3-0.6-4.1-1.7L54.6,60.9c-1.1-1.1-1.7-2.6-1.8-4.2c0-1.6,0.6-3.1,1.7-4.2l43.3-44
				c0.8-0.8,2.1-0.8,3,0L117.5,25c0.4,0.4,0.6,0.9,0.6,1.5c0,0.6-0.2,1.1-0.6,1.5L74.2,72C73.1,73.1,71.6,73.7,70,73.7z M99.3,13
				L57.5,55.5c-0.3,0.3-0.5,0.7-0.5,1.2c0,0.5,0.2,0.9,0.5,1.2L68.8,69c0.6,0.6,1.8,0.6,2.4,0l41.9-42.5L99.3,13z"/>
		</g>
		
			<rect x="92.3" y="19.9" transform="matrix(0.7019 -0.7123 0.7123 0.7019 5.6457 76.6631)" class="st1" width="4.2" height="23.4"/>
		<path class="st1" d="M103.1,41c-1,0-1.9-0.7-2.1-1.8l-0.8-5.1c-0.2-1.1,0.6-2.2,1.7-2.4c1.1-0.2,2.2,0.6,2.4,1.7l0.8,5.1
			c0.2,1.1-0.6,2.2-1.7,2.4C103.3,41,103.2,41,103.1,41z"/>
		<path class="st1" d="M101.6,31.1c-1,0-1.9-0.8-2.1-1.8l-1.1-8.4c-0.1-1.1,0.7-2.2,1.8-2.3c1.1-0.1,2.2,0.7,2.3,1.8l1.1,8.4
			c0.1,1.1-0.7,2.2-1.8,2.3C101.8,31.1,101.7,31.1,101.6,31.1z"/>
		<path class="st1" d="M100,17.9c-1,0-1.9-0.8-2.1-1.8l-0.7-5.5C97,9.5,97.8,8.5,99,8.3c1.1-0.2,2.2,0.7,2.3,1.8l0.7,5.5
			c0.1,1.1-0.7,2.2-1.8,2.3C100.1,17.9,100,17.9,100,17.9z"/>
		<path class="st1" d="M92,26c-0.1,0-0.2,0-0.2,0l-5.6-0.6c-1.2-0.1-2-1.2-1.9-2.3c0.1-1.2,1.2-2,2.3-1.9l5.6,0.6
			c1.2,0.1,2,1.2,1.9,2.3C94,25.2,93.1,26,92,26z"/>
		<path class="st1" d="M105.3,27.4c-0.1,0-0.2,0-0.2,0l-8.4-0.9c-1.1-0.1-2-1.2-1.8-2.3c0.1-1.1,1.2-2,2.3-1.8l8.4,0.9
			c1.1,0.1,2,1.2,1.8,2.3C107.3,26.6,106.4,27.4,105.3,27.4z"/>
		<path class="st1" d="M111.8,37.3c-0.5,0-1.1,0-1.5-0.4l-2.5-2.4l2.9-2.9l1,1l7.7-7.8c1.4-1.5,1.4-3.5-0.1-5L106.1,6.7
			c-0.8-0.8-1.7-1.2-2.7-1.2c-0.7,0-1.7,0.1-2.5,1l-7.7,7.9l1,1l-2.9,3l-2.5-2.5c-0.4-0.4-0.6-0.9-0.6-1.5c0-0.6,0.2-1.1,0.6-1.5
			l9.2-9.3c1.5-1.5,3.5-2.3,5.7-2.2c2,0.1,4,1,5.5,2.4l13.3,13.1c3.2,3.1,3.3,7.8,0.2,10.9l-9.2,9.1
			C112.9,37.2,112.4,37.3,111.8,37.3C111.8,37.3,111.8,37.3,111.8,37.3z"/>
		<path class="st1" d="M116,28.6c-0.1,0-0.2,0-0.2,0l-5.6-0.6c-1.1-0.1-2-1.2-1.9-2.3c0.1-1.1,1.2-2,2.3-1.9l5.6,0.6
			c1.1,0.1,2,1.2,1.9,2.3C118,27.8,117.1,28.6,116,28.6z"/>
	</g>
</g>
</svg>
